<?xml version="1.0" standalone="no"?>
<!DOCTYPE svg PUBLIC "-//W3C//DTD SVG 20010904//EN"
 "http://www.w3.org/TR/2001/REC-SVG-20010904/DTD/svg10.dtd">
<svg version="1.0" xmlns="http://www.w3.org/2000/svg"
 width="500.000000pt" height="500.000000pt" viewBox="0 0 500.000000 500.000000"
 preserveAspectRatio="xMidYMid meet">
<metadata>
Created by potrace 1.14, written by Peter Selinger 2001-2017
</metadata>
<g transform="translate(0.000000,500.000000) scale(0.100000,-0.100000)"
fill="#000000" stroke="none">
<path d="M2215 4984 c-502 -64 -944 -254 -1320 -567 -94 -78 -283 -274 -356
-367 -233 -300 -405 -662 -482 -1020 -25 -112 -30 -143 -45 -280 -14 -130 -6
-547 13 -602 2 -7 6 -31 9 -54 8 -64 54 -262 77 -334 101 -305 238 -565 428
-810 91 -118 316 -340 438 -433 322 -245 723 -421 1098 -481 17 -2 66 -10 110
-17 109 -18 513 -17 630 0 101 15 110 17 180 31 28 6 59 12 70 14 11 2 40 9
65 16 25 7 50 13 55 14 71 14 317 113 450 181 249 127 450 274 640 468 61 62
121 126 135 142 42 50 165 218 190 260 13 22 28 42 32 43 4 2 8 8 8 13 0 4 19
41 43 81 129 220 256 592 291 853 29 209 29 547 1 725 -76 478 -263 890 -574
1265 -30 36 -245 250 -286 285 -53 45 -218 165 -285 207 -213 135 -472 246
-719 308 -100 25 -124 29 -231 45 -36 6 -78 13 -95 16 -65 12 -472 11 -570 -2z"/>
</g>
</svg>
