<?xml version="1.0" standalone="no"?>
<!DOCTYPE svg PUBLIC "-//W3C//DTD SVG 20010904//EN"
 "http://www.w3.org/TR/2001/REC-SVG-20010904/DTD/svg10.dtd">
<svg version="1.0" xmlns="http://www.w3.org/2000/svg"
 width="518.000000pt" height="518.000000pt" viewBox="0 0 518.000000 518.000000"
 preserveAspectRatio="xMidYMid meet">
<metadata>
Created by potrace 1.14, written by Peter Selinger 2001-2017
</metadata>
<g transform="translate(0.000000,518.000000) scale(0.100000,-0.100000)"
fill="#000000" stroke="none">
<path d="M2350 5150 c-41 -4 -93 -10 -115 -14 -22 -3 -56 -9 -75 -12 -100 -15
-265 -56 -377 -94 -590 -194 -1095 -596 -1415 -1125 -167 -276 -285 -593 -333
-892 -3 -18 -7 -45 -9 -60 -28 -175 -29 -522 -1 -723 7 -45 25 -148 32 -180 3
-14 8 -34 10 -45 15 -81 92 -310 145 -428 194 -441 494 -806 904 -1097 46 -33
87 -60 90 -60 3 0 24 -13 47 -28 59 -39 247 -134 347 -175 201 -82 413 -140
637 -173 145 -22 492 -26 643 -8 385 47 734 166 1055 361 77 47 250 166 265
182 3 4 32 28 65 55 197 162 405 406 550 645 63 105 175 330 175 352 0 8 4 19
9 24 15 16 89 249 115 363 25 108 39 196 55 332 9 73 7 475 -2 515 -3 11 -8
43 -11 70 -6 43 -18 119 -32 190 -2 11 -13 54 -24 95 -11 41 -23 86 -26 99
-22 102 -174 446 -252 571 -136 218 -234 343 -387 495 -110 110 -141 138 -225
206 -54 43 -228 169 -234 169 -2 0 -35 19 -72 42 -99 60 -311 160 -439 206
-153 55 -395 114 -526 128 -35 3 -68 9 -73 12 -14 8 -435 10 -516 2z"/>
</g>
</svg>
