<?xml version="1.0" standalone="no"?>
<!DOCTYPE svg PUBLIC "-//W3C//DTD SVG 20010904//EN"
 "http://www.w3.org/TR/2001/REC-SVG-20010904/DTD/svg10.dtd">
<svg version="1.0" xmlns="http://www.w3.org/2000/svg"
 width="400.000000pt" height="400.000000pt" viewBox="0 0 400.000000 400.000000"
 preserveAspectRatio="xMidYMid meet">
<metadata>
Created by potrace 1.14, written by Peter Selinger 2001-2017
</metadata>
<g transform="translate(0.000000,400.000000) scale(0.100000,-0.100000)"
fill="#000000" stroke="none">
<path d="M1849 3996 c-2 -2 -37 -7 -77 -10 -40 -4 -78 -9 -85 -11 -7 -2 -31
-6 -55 -9 -24 -3 -46 -7 -50 -10 -4 -2 -25 -7 -47 -10 -76 -12 -280 -87 -410
-151 -266 -130 -476 -296 -685 -541 -48 -56 -171 -249 -219 -343 -107 -211
-179 -446 -208 -682 -15 -122 -8 -434 12 -539 3 -14 7 -41 10 -60 10 -66 55
-229 86 -312 62 -169 206 -433 291 -533 9 -11 33 -40 53 -65 303 -372 759
-625 1267 -704 82 -12 465 -15 513 -3 11 2 41 7 66 11 75 11 89 14 224 51 71
20 142 42 159 50 16 8 34 15 39 15 23 0 277 132 362 188 492 322 820 852 892
1444 15 122 8 433 -12 538 -3 14 -7 41 -10 60 -12 76 -65 260 -100 350 -154
390 -413 714 -750 937 -38 26 -82 54 -96 64 -50 33 -274 137 -364 169 -115 40
-240 71 -345 85 -30 4 -64 9 -75 12 -23 5 -381 13 -386 9z"/>
</g>
</svg>
